<svg width="107" height="84" viewBox="0 0 107 84" fill="none" xmlns="http://www.w3.org/2000/svg">
<path d="M99.4622 83.265H99.4616L71.7008 83.2622C69.8612 83.2604 68.0977 82.7035 66.797 81.7135C65.4964 80.7235 64.7648 79.3814 64.7627 77.9815V56.8581C64.762 56.3914 64.5181 55.9439 64.0845 55.6139C63.6508 55.2839 63.0629 55.0983 62.4496 55.0978H43.945C43.3317 55.0983 42.7438 55.2839 42.3101 55.6139C41.8765 55.9439 41.6326 56.3914 41.6319 56.8581V77.9815C41.6298 79.3815 40.8981 80.7236 39.5973 81.7136C38.2966 82.7036 36.5329 83.2605 34.6933 83.2622L6.94038 83.265C6.02899 83.2652 5.12648 83.1287 4.2844 82.8634C3.44233 82.5981 2.67718 82.2092 2.03268 81.7188C1.38817 81.2284 0.876933 80.6462 0.528161 80.0054C0.179389 79.3646 -8.12752e-05 78.6779 2.76112e-08 77.9843V37.2959C0.000810777 36.5603 0.20322 35.8328 0.594299 35.1601C0.985378 34.4873 1.55653 33.884 2.27128 33.3887L48.5288 1.381C49.8033 0.492784 51.4688 8.14656e-05 53.1969 1.01015e-08C54.9251 -8.14454e-05 56.5906 0.492464 57.8653 1.38056L104.13 33.3889C104.845 33.8842 105.416 34.4876 105.807 35.1603C106.198 35.8331 106.4 36.5605 106.401 37.2962V77.9843C106.401 78.6778 106.222 79.3645 105.873 80.0052C105.525 80.646 105.014 81.2281 104.369 81.7185C103.725 82.2089 102.96 82.5979 102.118 82.8632C101.276 83.1286 100.373 83.2651 99.4622 83.2651V83.265ZM43.945 51.5773H62.4496C64.2894 51.5789 66.0532 52.1358 67.3541 53.1258C68.655 54.1157 69.3868 55.458 69.3888 56.8581V77.9815C69.3895 78.4481 69.6333 78.8955 70.0669 79.2255C70.5004 79.5555 71.0882 79.7411 71.7013 79.7418L99.4622 79.7445C100.076 79.7445 100.664 79.5591 101.098 79.2289C101.532 78.8988 101.775 78.4511 101.775 77.9843V37.2961C101.775 37.0508 101.707 36.8083 101.577 36.584C101.447 36.3597 101.256 36.1585 101.018 35.9933L54.7537 3.98549C54.3286 3.6895 53.7733 3.52537 53.1972 3.52545C52.6211 3.52553 52.0658 3.68982 51.641 3.98593L5.38343 35.9936C5.14506 36.1586 4.95459 36.3597 4.82419 36.5839C4.69379 36.8082 4.62634 37.0507 4.62615 37.2959V77.9843C4.62616 78.2155 4.68602 78.4444 4.8023 78.658C4.91859 78.8716 5.08902 79.0656 5.30387 79.2291C5.51871 79.3926 5.77377 79.5222 6.05446 79.6106C6.33516 79.6991 6.636 79.7446 6.9398 79.7445L34.6927 79.7417C35.306 79.7412 35.8939 79.5556 36.3276 79.2256C36.7612 78.8956 37.0051 78.4482 37.0058 77.9815V56.8581C37.0079 55.458 37.7396 54.1157 39.0405 53.1258C40.3414 52.1358 42.1053 51.5789 43.945 51.5773Z" fill="black"/>
</svg>
