<svg width="134" height="70" viewBox="0 0 134 70" fill="none" xmlns="http://www.w3.org/2000/svg">
<path d="M131.86 9.98472C131.512 9.81374 131.118 9.72317 130.716 9.72208C130.315 9.721 129.92 9.80944 129.571 9.97855L100.898 23.8718V17.5C100.892 12.8603 98.7154 8.41216 94.8463 5.1314C90.9772 1.85065 85.7314 0.00522499 80.2597 0H6.8794C5.05548 0.00168816 3.30684 0.616812 2.01713 1.71041C0.727423 2.804 0.00199089 4.28676 0 5.83333V52.5C0.00616196 57.1397 2.18252 61.5878 6.0516 64.8686C9.92068 68.1494 15.1665 69.9948 20.6382 70H94.0185C95.8424 69.9983 97.5911 69.3832 98.8808 68.2896C100.17 67.196 100.896 65.7132 100.898 64.1667V46.1282L129.571 60.0214C129.92 60.1905 130.315 60.2789 130.716 60.2778C131.118 60.2767 131.512 60.1862 131.86 60.0152C132.207 59.8443 132.496 59.5989 132.696 59.3037C132.896 59.0086 133.002 58.6739 133.002 58.3333V11.6667C133.002 11.3261 132.896 10.9914 132.696 10.6962C132.495 10.4011 132.207 10.1557 131.86 9.98472ZM96.3116 64.1667C96.311 64.6822 96.0692 65.1765 95.6393 65.541C95.2094 65.9056 94.6265 66.1106 94.0185 66.1111H20.6382C16.3824 66.1071 12.3023 64.6717 9.29304 62.12C6.28376 59.5683 4.59104 56.1086 4.58627 52.5V5.83333C4.58687 5.31779 4.82867 4.82352 5.25858 4.45897C5.6885 4.09443 6.27141 3.8894 6.8794 3.88889H80.2597C84.5155 3.89294 88.5956 5.32826 91.6049 7.87996C94.6141 10.4317 96.3069 13.8914 96.3116 17.5V64.1667ZM128.415 54.9828L100.898 41.6496V28.3504L128.415 15.0172V54.9828Z" fill="black"/>
</svg>
